<svg xmlns="http://www.w3.org/2000/svg" viewBox="0 0 512 512" role="img" aria-label="Merhaba-World">
  <rect width="512" height="512" rx="96" fill="#173f3a"/>
  <path d="M112 352c58-76 112-122 162-137 49-15 89 3 126 53" fill="none" stroke="#f4f1ea" stroke-width="28" stroke-linecap="round"/>
  <path d="M142 174h228c21 0 38 17 38 38v130c0 21-17 38-38 38H142c-21 0-38-17-38-38V212c0-21 17-38 38-38Z" fill="#fffdf7"/>
  <path d="M152 236h208M152 286h144" stroke="#173f3a" stroke-width="24" stroke-linecap="round"/>
  <circle cx="356" cy="322" r="34" fill="#d65c45"/>
  <path d="M372 118 336 74 300 118" fill="none" stroke="#e5a323" stroke-width="24" stroke-linecap="round" stroke-linejoin="round"/>
</svg>
